<svg width="119" height="74" viewBox="0 0 119 74" fill="none" xmlns="http://www.w3.org/2000/svg">
<path d="M103.009 71.8272C97.6761 72.6133 92.6667 68.9922 88.8452 63.4303C84.9682 57.7878 81.9996 49.7468 80.7706 40.6456C79.5416 31.5444 80.265 22.9592 82.4965 16.4162C84.696 9.96679 88.551 5.03902 93.8838 4.25293C99.2166 3.46684 104.226 7.08795 108.048 12.6498C111.924 18.2924 114.893 26.3334 116.122 35.4346C117.351 44.5358 116.628 53.121 114.396 59.664C112.197 66.1134 108.342 71.0412 103.009 71.8272Z" fill="#F3F1DF" stroke="#435B59" stroke-width="3"/>
<path d="M16.032 71.3843C21.3732 72.1075 26.3432 68.4273 30.1043 62.8208C33.92 57.133 36.8015 49.0576 37.9321 39.9425C39.0626 30.8275 38.2464 22.2514 35.9444 15.7352C33.6754 9.31237 29.7674 4.43019 24.4261 3.70702C19.0848 2.98384 14.1149 6.66402 10.3538 12.2705C6.53811 17.9583 3.65657 26.0338 2.52601 35.1488C1.39545 44.2638 2.21167 52.8399 4.51367 59.3561C6.78272 65.7789 10.6907 70.6611 16.032 71.3843Z" fill="#F3F1DF" stroke="#435B59" stroke-width="3"/>
<path d="M28.9515 53.1649C41.5416 53.1649 51.3781 41.3791 51.3781 27.3325C51.3781 13.2858 41.5416 1.5 28.9515 1.5C16.3614 1.5 6.5249 13.2858 6.5249 27.3325C6.5249 41.3791 16.3614 53.1649 28.9515 53.1649Z" fill="#FFFEF4" stroke="#4F6765" stroke-width="3"/>
<path d="M23.3325 27.8074C23.5326 27.5622 23.9073 27.5622 24.1074 27.8074L27.585 32.0706C27.8514 32.3971 27.619 32.8866 27.1975 32.8866H20.2423C19.8208 32.8866 19.5885 32.3971 19.8549 32.0706L23.3325 27.8074Z" fill="#3B504E"/>
<path d="M24.1072 23.3311C23.9071 23.5763 23.5324 23.5763 23.3323 23.3311L19.8547 19.0679C19.5883 18.7413 19.8207 18.2519 20.2422 18.2519H27.1974C27.6189 18.2519 27.8512 18.7413 27.5848 19.0679L24.1072 23.3311Z" fill="#3B504E"/>
<path d="M21.4592 25.7881C21.6831 25.59 21.6841 25.2409 21.4614 25.0413L17.4081 21.409C17.0866 21.121 16.5758 21.3481 16.5745 21.7797L16.5528 29.0176C16.5515 29.4493 17.061 29.6797 17.3842 29.3938L21.4592 25.7881Z" fill="#3B504E"/>
<path d="M25.6756 25.7881C25.4517 25.59 25.4506 25.2409 25.6733 25.0413L29.7267 21.409C30.0482 21.121 30.559 21.3481 30.5603 21.7797L30.582 29.0176C30.5832 29.4493 30.0738 29.6797 29.7506 29.3938L25.6756 25.7881Z" fill="#3B504E"/>
<path d="M89.7061 53.1649C102.296 53.1649 112.133 41.3791 112.133 27.3325C112.133 13.2858 102.296 1.5 89.7061 1.5C77.116 1.5 67.2795 13.2858 67.2795 27.3325C67.2795 41.3791 77.116 53.1649 89.7061 53.1649Z" fill="#FFFEF4" stroke="#4F6765" stroke-width="3"/>
<ellipse cx="95.2753" cy="17.2821" rx="3.20649" ry="3.35012" fill="#3B504E"/>
<ellipse cx="88.8623" cy="23.9823" rx="3.20649" ry="3.35012" fill="#3B504E"/>
<ellipse cx="95.2753" cy="30.6826" rx="3.20649" ry="3.35012" fill="#3B504E"/>
<rect x="35.2146" y="4.24719" width="47.2159" height="39.1062" fill="#FFFEF4" stroke="#4F6765" stroke-width="3"/>
<path d="M40.9337 44.7015C46.7368 44.7015 51.3781 39.8897 51.3781 34.0327C51.3781 28.1758 46.7368 23.364 40.9337 23.364C35.1306 23.364 30.4893 28.1758 30.4893 34.0327C30.4893 39.8897 35.1306 44.7015 40.9337 44.7015Z" fill="#FFFEF4" stroke="#4F6765" stroke-width="3"/>
<path d="M77.724 44.7015C83.5271 44.7015 88.1684 39.8897 88.1684 34.0327C88.1684 28.1758 83.5271 23.364 77.724 23.364C71.9209 23.364 67.2795 28.1758 67.2795 34.0327C67.2795 39.8897 71.9209 44.7015 77.724 44.7015Z" fill="#FFFEF4" stroke="#4F6765" stroke-width="3"/>
<ellipse cx="101.688" cy="23.9823" rx="3.20649" ry="3.35012" fill="#3B504E"/>
<rect x="45.1528" y="6.52643" width="29.3647" height="15.1637" rx="4" fill="#3B504E"/>
</svg>
